ExternalForces									
version=1									
nRows=201									
nColumns=10									
inDegrees=yes									
endheader									
time	chair_force_vx	chair_force_vy	chair_force_vz	chair_force_px	chair_force_py	chair_force_pz	chair_torque_x	chair_torque_y	chair_torque_z
0	-9.78633579	255.857296	0	0	0	0	0	0	0
0.00803524	-9.13224245	257.2397471	0	0	0	0	0	0	0
0.01331349	-7.49212329	258.6438652	0	0	0	0	0	0	0
0.01859173	-6.65511714	261.8852496	0	0	0	0	0	0	0
0.01955933	-5.80744533	261.3128426	0	0	0	0	0	0	0
0.0236551	0.4660874	254.2074627	0	0	0	0	0	0	0
0.02446652	-5.08742307	264.6991717	0	0	0	0	0	0	0
0.02557439	-3.85552247	263.5863644	0	0	0	0	0	0	0
0.02960961	1.55182721	257.9229154	0	0	0	0	0	0	0
0.03043086	-1.42285022	263.9085688	0	0	0	0	0	0	0
0.03217307	-1.14315164	265.0854498	0	0	0	0	0	0	0
0.03816848	-4.88930011	277.8132426	0	0	0	0	0	0	0
0.03876802	-0.32667915	270.4648949	0	0	0	0	0	0	0
0.04090095	2.44239298	267.9375598	0	0	0	0	0	0	0
0.04640268	8.10296903	264.2109822	0	0	0	0	0	0	0
0.04736388	6.63074462	267.8914706	0	0	0	0	0	0	0
0.04911994	7.02468551	269.2269347	0	0	0	0	0	0	0
0.05556507	7.09696797	276.6264927	0	0	0	0	0	0	0
0.05643743	9.28122728	273.8273625	0	0	0	0	0	0	0
0.06079926	13.46098371	271.6567158	0	0	0	0	0	0	0
0.0680222	7.51359518	290.6468362	0	0	0	0	0	0	0
0.0687445	13.57933496	280.8832294	0	0	0	0	0	0	0
0.06997119	16.37246053	277.4521462	0	0	0	0	0	0	0
0.07531413	21.16075843	275.4357988	0	0	0	0	0	0	0
0.08416828	18.44344928	290.7516063	0	0	0	0	0	0	0
0.08505369	22.59974817	284.526128	0	0	0	0	0	0	0
0.08809233	26.77229849	280.8294334	0	0	0	0	0	0	0
0.09804926	37.92982424	273.0326082	0	0	0	0	0	0	0
0.09910008	35.04873913	279.308348	0	0	0	0	0	0	0
0.10080575	35.09988411	281.2123213	0	0	0	0	0	0	0
0.10392855	36.23598386	282.839821	0	0	0	0	0	0	0
0.11649003	41.81799703	283.9743716	0	0	0	0	0	0	0
0.1290515	48.46734659	280.4680126	0	0	0	0	0	0	0
0.14915174	51.57253479	281.1045069	0	0	0	0	0	0	0
0.15116176	56.13636119	279.4372442	0	0	0	0	0	0	0
0.15510434	59.62241231	277.0829341	0	0	0	0	0	0	0
0.16437463	65.63109837	274.0119241	0	0	0	0	0	0	0
0.17022847	67.78266885	272.5096799	0	0	0	0	0	0	0
0.17952051	76.08178388	270.6753711	0	0	0	0	0	0	0
0.18107323	74.78024732	270.160398	0	0	0	0	0	0	0
0.18626409	75.96351574	268.8792998	0	0	0	0	0	0	0
0.19419407	80.36638345	267.1023178	0	0	0	0	0	0	0
0.2033168	81.28669234	264.6951587	0	0	0	0	0	0	0
0.2042943	84.29039733	264.7163419	0	0	0	0	0	0	0
0.20631801	85.92330386	264.4631913	0	0	0	0	0	0	0
0.21529211	96.80987249	264.3072648	0	0	0	0	0	0	0
0.21662574	93.78235757	264.0071973	0	0	0	0	0	0	0
0.21992351	93.65633336	263.8629574	0	0	0	0	0	0	0
0.22758828	95.74288908	263.8627224	0	0	0	0	0	0	0
0.2298816	97.72790045	263.9785641	0	0	0	0	0	0	0
0.23621811	101.4382681	264.1600617	0	0	0	0	0	0	0
0.24330875	101.8807092	264.0418562	0	0	0	0	0	0	0
0.24523442	104.035673	264.1319211	0	0	0	0	0	0	0
0.24988353	106.288834	264.1127504	0	0	0	0	0	0	0
0.25881904	106.0258429	263.6389249	0	0	0	0	0	0	0
0.25977798	109.0076679	263.7634769	0	0	0	0	0	0	0
0.26167149	110.083913	263.703355	0	0	0	0	0	0	0
0.26891841	115.2927156	263.4435051	0	0	0	0	0	0	0
0.27049565	114.1663009	263.2345481	0	0	0	0	0	0	0
0.27715167	109.7332299	262.3261081	0	0	0	0	0	0	0
0.27792127	114.2480521	262.4882637	0	0	0	0	0	0	0
0.27944743	115.4770655	262.3847474	0	0	0	0	0	0	0
0.28402763	117.3780405	261.9360769	0	0	0	0	0	0	0
0.29077467	115.8556833	260.9507285	0	0	0	0	0	0	0
0.29155119	118.2977279	260.9509768	0	0	0	0	0	0	0
0.29348323	119.39398	260.6945891	0	0	0	0	0	0	0
0.29878109	121.3365505	259.8394017	0	0	0	0	0	0	0
0.3042847	121.231402	258.8243575	0	0	0	0	0	0	0
0.30901973	130.4367954	258.2311007	0	0	0	0	0	0	0
0.31027163	126.16112	257.7849114	0	0	0	0	0	0	0
0.31321386	124.8140525	257.0093144	0	0	0	0	0	0	0
0.31896052	123.1062185	255.3175455	0	0	0	0	0	0	0
0.32031574	126.7124448	255.0021922	0	0	0	0	0	0	0
0.32243479	127.0032203	254.3152181	0	0	0	0	0	0	0
0.32971216	125.7996172	251.6839949	0	0	0	0	0	0	0
0.33052874	128.7686989	251.4407043	0	0	0	0	0	0	0
0.33226331	129.8000634	250.7905433	0	0	0	0	0	0	0
0.33713866	131.8580152	248.8603762	0	0	0	0	0	0	0
0.34139378	132.234904	247.0623403	0	0	0	0	0	0	0
0.34610902	142.3416083	245.0852585	0	0	0	0	0	0	0
0.34723304	137.3002534	244.5223551	0	0	0	0	0	0	0
0.34984917	135.670708	243.3071196	0	0	0	0	0	0	0
0.35457056	133.9925032	241.086449	0	0	0	0	0	0	0
0.35597167	137.558681	240.4224204	0	0	0	0	0	0	0
0.35811462	137.6491159	239.3841613	0	0	0	0	0	0	0
0.36411565	136.1499676	236.4212943	0	0	0	0	0	0	0
0.36482028	138.93429	236.0460611	0	0	0	0	0	0	0
0.36653239	140.1734615	235.1647601	0	0	0	0	0	0	0
0.37039416	140.975354	233.1600505	0	0	0	0	0	0	0
0.37472736	150.0041469	230.7122117	0	0	0	0	0	0	0
0.37580398	145.5193753	230.2078937	0	0	0	0	0	0	0
0.37872892	143.9292085	228.6488697	0	0	0	0	0	0	0
0.3830848	140.6553168	226.3338923	0	0	0	0	0	0	0
0.38417936	145.9514244	225.5766357	0	0	0	0	0	0	0
0.38565396	145.7339185	224.7509992	0	0	0	0	0	0	0
0.39029986	140.679912	222.2717576	0	0	0	0	0	0	0
0.39087914	145.6607159	221.7595983	0	0	0	0	0	0	0
0.39245702	147.9979241	220.7539108	0	0	0	0	0	0	0
0.39508737	148.042437	219.1984709	0	0	0	0	0	0	0
0.39988417	158.9334145	215.7978539	0	0	0	0	0	0	0
0.40082883	152.9660692	215.4835872	0	0	0	0	0	0	0
0.40318371	150.5668359	214.0019036	0	0	0	0	0	0	0
0.40836712	143.7921102	209.7785896	0	0	0	0	0	0	0
0.40899364	147.4107371	208.9003845	0	0	0	0	0	0	0
0.41059182	147.8282062	207.0967058	0	0	0	0	0	0	0
0.41439584	145.8367844	202.6119712	0	0	0	0	0	0	0
0.42618008	136.0190976	187.167483	0	0	0	0	0	0	0
0.43796431	125.4707109	170.794697	0	0	0	0	0	0	0
0.46364933	101.5747674	136.0661783	0	0	0	0	0	0	0
0.49295167	78.59747961	100.4453336	0	0	0	0	0	0	0
0.50174655	71.51007	90.8051965	0	0	0	0	0	0	0
0.51054142	61.7043611	79.85318472	0	0	0	0	0	0	0
0.52279024	44.35002406	62.35277178	0	0	0	0	0	0	0
0.53915115	21.43093698	37.03280149	0	0	0	0	0	0	0
0.58287314	0	0	0	0	0	0	0	0	0
0.59560535	0	0	0	0	0	0	0	0	0
0.60216531	0	0	0	0	0	0	0	0	0
0.60872527	0	0	0	0	0	0	0	0	0
0.62965417	0	0	0	0	0	0	0	0	0
0.64343178	0	0	0	0	0	0	0	0	0
0.65280002	0	0	0	0	0	0	0	0	0
0.66216826	0	0	0	0	0	0	0	0	0
0.67153649	0	0	0	0	0	0	0	0	0
0.67927994	0	0	0	0	0	0	0	0	0
0.68702338	0	0	0	0	0	0	0	0	0
0.69711334	0	0	0	0	0	0	0	0	0
0.70418627	0	0	0	0	0	0	0	0	0
0.7112592	0	0	0	0	0	0	0	0	0
0.71833213	0	0	0	0	0	0	0	0	0
0.7280795	0	0	0	0	0	0	0	0	0
0.73412898	0	0	0	0	0	0	0	0	0
0.74017845	0	0	0	0	0	0	0	0	0
0.74819668	0	0	0	0	0	0	0	0	0
0.75619727	0	0	0	0	0	0	0	0	0
0.76323938	0	0	0	0	0	0	0	0	0
0.76907955	0	0	0	0	0	0	0	0	0
0.77491972	0	0	0	0	0	0	0	0	0
0.7837061	0	0	0	0	0	0	0	0	0
0.79051219	0	0	0	0	0	0	0	0	0
0.79640103	0	0	0	0	0	0	0	0	0
0.80228988	0	0	0	0	0	0	0	0	0
0.81009088	0	0	0	0	0	0	0	0	0
0.81697123	0	0	0	0	0	0	0	0	0
0.82385159	0	0	0	0	0	0	0	0	0
0.83073194	0	0	0	0	0	0	0	0	0
0.83761229	0	0	0	0	0	0	0	0	0
0.84682702	0	0	0	0	0	0	0	0	0
0.85604176	0	0	0	0	0	0	0	0	0
0.86194868	0	0	0	0	0	0	0	0	0
0.8694891	0	0	0	0	0	0	0	0	0
0.87702952	0	0	0	0	0	0	0	0	0
0.88522354	0	0	0	0	0	0	0	0	0
0.89341757	0	0	0	0	0	0	0	0	0
0.89992123	0	0	0	0	0	0	0	0	0
0.90642489	0	0	0	0	0	0	0	0	0
0.91406174	0	0	0	0	0	0	0	0	0
0.92169859	0	0	0	0	0	0	0	0	0
0.92791345	0	0	0	0	0	0	0	0	0
0.93412831	0	0	0	0	0	0	0	0	0
0.94226544	0	0	0	0	0	0	0	0	0
0.95040258	0	0	0	0	0	0	0	0	0
0.95853971	0	0	0	0	0	0	0	0	0
0.96667684	0	0	0	0	0	0	0	0	0
0.97345968	0	0	0	0	0	0	0	0	0
0.98024252	0	0	0	0	0	0	0	0	0
0.98702536	0	0	0	0	0	0	0	0	0
0.9938082	0	0	0	0	0	0	0	0	0
0.99895989	0	0	0	0	0	0	0	0	0
1.00541426	0	0	0	0	0	0	0	0	0
1.01324989	0	0	0	0	0	0	0	0	0
1.01908356	0	0	0	0	0	0	0	0	0
1.02670256	0	0	0	0	0	0	0	0	0
1.02885244	0	0	0	0	0	0	0	0	0
1.03418276	0	0	0	0	0	0	0	0	0
1.04178009	0	0	0	0	0	0	0	0	0
1.04498651	0	0	0	0	0	0	0	0	0
1.05043061	0	0	0	0	0	0	0	0	0
1.06432188	0	0	0	0	0	0	0	0	0
1.07423922	0	0	0	0	0	0	0	0	0
1.09081274	0	0	0	0	0	0	0	0	0
1.10183309	0	0	0	0	0	0	0	0	0
1.11285343	0	0	0	0	0	0	0	0	0
1.12387378	0	0	0	0	0	0	0	0	0
1.13980623	0	0	0	0	0	0	0	0	0
1.15573867	0	0	0	0	0	0	0	0	0
1.17167112	0	0	0	0	0	0	0	0	0
1.19109232	0	0	0	0	0	0	0	0	0
1.20323299	0	0	0	0	0	0	0	0	0
1.21537366	0	0	0	0	0	0	0	0	0
1.22751433	0	0	0	0	0	0	0	0	0
1.24323944	0	0	0	0	0	0	0	0	0
1.25896456	0	0	0	0	0	0	0	0	0
1.27006016	0	0	0	0	0	0	0	0	0
1.28115576	0	0	0	0	0	0	0	0	0
1.29357297	0	0	0	0	0	0	0	0	0
1.30188061	0	0	0	0	0	0	0	0	0
1.30880556	0	0	0	0	0	0	0	0	0
1.31249569	0	0	0	0	0	0	0	0	0
1.31618582	0	0	0	0	0	0	0	0	0
1.32468184	0	0	0	0	0	0	0	0	0
1.3271042	0	0	0	0	0	0	0	0	0
